PathFileType	4	(X/Y/Z)	C:\Users\°ÂÌØÂü\Desktop\20210112\bx_n_0_1801-Unnamed.trc
DataRate	CameraRate	NumFrames	NumMarkers	Units	OrigDataRate	OrigDataStartFrame	OrigNumFrames
50.00	50.00	       7	0	mm	50.00	249	       397
Frame#	Time	
		

249	4.960	-486.24615	-60.71746	1112.55579	-630.60907	260.53247	472.01196	-823.55402	285.26758	687.73248	-558.50092	73.83376	546.87537	-565.41772	105.55489	914.41058	-697.70270	278.55710	629.90735	-1000.12274	91.51730	839.34491	-689.84869	222.00742	734.19025	-534.06671	12.46658	473.66653	-576.94550	254.93802	530.39716	-525.49310	207.90762	488.73886				-702.36670	78.70585	205.98070	-648.80884	-63.28832	167.50363	-696.65686	145.70099	205.28175	-753.49915	220.27628	207.90590	-608.25647	-68.26780	166.81953	-882.69220	296.20465	144.82541	-670.07251	56.05350	152.48531	-596.71423	25.32745	165.38942	-551.71490	-33.87140	166.69730	-587.27515	211.39658	173.71185	-653.24274	289.60587	159.74591	-617.76477	295.50879	162.98300	-551.63177	248.94934	165.80399	-528.17303	304.13773	146.65773	-391.91608	126.74413	1392.70435	-508.91690	288.81235	1119.49048	-517.85480	-72.76434	143.31099	-787.64264	50.08075	177.95190	-787.93854	168.45215	189.43172	-702.45538	-9.81704	739.66449	-641.83746	-44.73757	462.41425	-744.98114	-9.76195	209.56253	-875.80457	-78.52492	141.11989				-540.06122	145.65007	546.45532	-672.21887	165.45946	152.28061	-806.75000	-82.52644	706.28217							-577.25061	-38.42345	523.79956	-712.09613	-70.78189	640.78815	-592.68512	-40.55249	561.06403	
250	4.980	-486.65622	-60.48852	1119.03650	-630.95953	259.66913	471.99304	-821.87189	285.06702	691.27112	-558.53625	73.56871	547.43512	-564.38501	105.44456	921.11285	-697.21515	277.75232	631.38562	-997.79382	91.81980	843.69696	-687.92841	221.82297	736.01868	-534.68439	12.33441	473.57928	-577.25696	254.36586	530.40393	-526.30969	208.01463	488.65460				-702.27856	78.70497	206.08969	-648.90857	-63.60112	167.42450	-696.83966	144.64203	206.41068	-753.29871	220.49722	208.04041	-608.24323	-68.57484	166.80426	-882.68671	296.19186	144.72749	-670.07251	56.05350	152.48531	-596.34076	25.21044	165.49585	-551.69830	-33.91267	166.61441	-587.25433	211.46155	173.62062	-653.30634	289.67966	159.68695	-617.69519	295.46121	162.95094	-551.46539	248.81702	165.77220	-528.06567	304.17868	146.70096	-392.78470	126.80267	1400.04285	-509.01312	289.13190	1125.93335	-517.95093	-72.77839	143.14665	-787.52875	49.99206	177.77522	-787.97729	168.56889	189.54501	-700.87482	-10.43898	741.65088	-642.21002	-44.96344	463.10690	-745.28857	-9.96685	209.92020	-875.87817	-78.62728	141.29668				-539.99518	145.00810	546.69037	-672.04315	165.28955	152.38606	-805.24640	-82.22300	708.44904							-577.97064	-38.85698	524.30115	-711.62872	-71.20043	642.39337	-592.76062	-40.63058	561.22784	
251	5.000	-486.37878	-60.03844	1125.87170	-631.07184	259.73096	472.69214	-820.91968	284.45584	694.57043	-558.62793	73.65499	547.52008	-563.47467	105.28055	927.62073	-696.77319	277.09238	632.97168	-996.23181	91.17664	848.02899	-686.34644	221.56013	737.72186	-535.07941	12.31332	473.66510	-577.74170	253.68730	530.55859	-526.45013	207.94110	488.89444				-702.47498	78.56135	206.20522	-648.80750	-63.32035	167.23647	-697.00793	144.62195	206.57053	-753.16962	220.29504	208.00130	-608.50317	-68.74318	166.65981	-882.65900	296.06195	144.65460	-670.14166	55.77163	152.15900	-596.43134	25.28349	165.48819	-551.70056	-33.86886	166.44444	-587.25800	211.28917	173.52274	-653.39227	289.71884	159.58009	-617.83331	295.51254	162.92461	-551.51306	248.92564	165.72760	-528.06799	304.30548	146.85791	-393.85974	127.12996	1407.12512	-509.94958	289.00034	1132.84949	-517.84668	-72.83995	143.21233	-787.74774	49.73901	178.47145	-788.00171	168.87373	189.60634	-699.06641	-11.28273	743.79724	-642.62140	-45.17902	462.92398	-745.07806	-9.87794	209.62987	-876.07831	-78.80435	141.53267				-540.00714	144.93011	546.88031	-672.04315	165.28955	152.38606	-804.02008	-82.12740	711.46893							-578.37299	-39.14745	524.80298	-710.96252	-71.34625	644.32990	-592.99768	-40.85961	561.49066	
252	5.020	-486.32779	-60.19302	1133.16870	-631.25494	259.11838	472.44443	-819.44818	284.21844	697.43536	-558.84650	73.56898	547.65912	-562.50598	105.07481	934.08490	-695.98108	276.83664	634.56580	-994.67163	90.73671	852.42657	-684.40625	221.77541	739.73090	-535.06635	12.24467	473.95972	-578.06793	253.83636	531.81476	-526.72223	207.45650	488.83640				-702.26288	78.51601	206.22089	-648.75403	-63.55267	167.38721	-697.00793	144.62195	206.57053	-753.23969	220.34924	207.75806	-608.62445	-68.98613	166.65976	-882.62347	296.04675	144.74138	-670.14166	55.77163	152.15900	-596.38586	25.17375	165.32852	-551.73248	-33.96201	166.54381	-587.11230	211.34537	173.61024	-653.45764	289.75125	159.52234	-617.78583	295.65317	162.75191	-551.53296	248.87334	165.63065	-528.10059	304.06805	146.61795	-394.78195	127.24614	1414.30469	-510.15302	289.34622	1139.41101	-517.91669	-72.97008	143.18219	-787.56396	49.69821	178.35117	-787.81830	168.70914	189.43103	-697.27991	-11.89744	745.18689	-642.85211	-44.91158	463.05502	-746.16541	-9.84631	209.12877	-876.06458	-78.38715	141.20003				-540.30756	144.75516	546.81799	-672.00116	165.19403	152.53897	-802.59375	-82.47878	714.35913							-578.57861	-39.33836	525.00464	-710.42578	-71.67052	645.95776	-593.35895	-41.14629	562.14996	
253	5.040	-486.21860	-60.39991	1140.44702	-631.40894	259.17029	472.81766	-818.12134	283.70175	701.12177	-558.98193	73.41295	548.06238	-561.58429	104.98022	940.73364	-695.29681	277.01160	636.90576	-993.71637	89.49895	856.87750	-682.27496	221.98445	741.76245	-535.55908	12.13223	473.71378	-578.19226	253.32233	531.83020	-526.88141	207.40833	488.99173				-702.26587	78.57309	206.16495	-648.98383	-63.67304	167.25710	-697.00793	144.62195	206.57053	-753.73114	220.57071	208.06978	-608.57733	-68.97470	166.45737	-882.64282	296.14023	144.88646	-670.14166	55.77163	152.15900	-596.55963	25.38486	165.42210	-551.44653	-33.85139	166.47438	-587.23682	211.31660	173.70096	-653.56586	289.88458	159.39594	-617.77051	295.63608	162.65509	-551.60223	248.80212	165.63637	-528.13324	304.36032	146.74535	-395.73434	127.38285	1421.95544	-510.46814	289.44556	1146.46204	-517.94427	-72.83002	143.12292	-787.72192	49.85168	178.21414	-787.74927	168.61674	189.43600	-694.92719	-12.65704	747.03491	-643.13440	-44.97186	463.28815	-745.75476	-10.08650	209.31436	-876.08496	-78.48618	141.19653				-540.42053	144.66298	547.11774	-672.49005	165.60379	151.94655	-801.26044	-82.73162	717.16815							-578.80054	-39.74563	525.39911	-709.76703	-71.97581	648.04370	-593.61786	-40.86847	562.71356	
254	5.060	-486.26614	-60.74561	1147.73779	-631.78705	258.92236	473.69308	-816.60400	283.22580	704.00897	-559.07855	73.15444	548.38287	-560.74176	104.77793	947.67798	-694.75977	276.74960	638.36554	-990.77783	89.74334	861.27869	-680.34619	221.99844	743.21014	-535.93414	11.59712	474.05771	-578.53192	253.08588	532.24579	-527.44202	207.03452	489.54422				-702.54065	78.47948	206.66687	-648.79077	-63.64000	166.94731	-697.36871	144.68431	206.34937	-753.65497	220.61346	208.14055	-608.23560	-69.09251	166.24365	-882.60803	296.03711	144.67110	-670.14166	55.77163	152.15900	-596.47968	25.23245	165.64488	-551.67114	-33.73161	166.01436	-587.26331	211.03656	173.50497	-653.50061	289.85156	159.45306	-617.85956	295.73233	162.60504	-551.37677	248.56587	165.51999	-528.08813	304.24850	146.80701	-396.97638	127.51238	1429.50439	-510.46469	289.42142	1153.35693	-517.94281	-72.85400	143.04799	-787.71667	49.55837	178.61501	-788.32727	169.09898	189.50200	-693.08618	-12.64211	748.56921	-643.34430	-45.20611	463.41751	-745.68188	-10.06402	209.62447	-876.06781	-78.61565	141.06339				-540.70782	144.54250	547.36658	-672.07465	165.06432	152.41774	-799.71490	-83.10978	720.15161							-579.15686	-39.37418	525.78131	-708.97504	-72.20875	649.82251	-593.59302	-40.95209	563.14777	
255	5.080	-486.34592	-60.83470	1155.28113	-632.28271	258.70236	473.77292	-815.65497	282.40848	707.61200	-559.21600	73.08282	548.43311	-560.10297	104.77133	954.27667	-694.37994	276.21075	640.16858	-988.86243	89.15173	866.40442	-678.40790	222.14430	745.20825	-536.44916	11.70888	474.75635	-578.85730	252.75412	532.26105	-528.19849	206.66943	489.59616				-702.48969	78.36159	206.86441	-648.72925	-63.62966	166.85184	-697.00793	144.62195	206.57053	-753.56482	220.52701	208.04298	-608.55872	-69.44876	165.54922	-882.71356	296.27563	144.82799	-670.14166	55.77163	152.15900	-596.44623	25.29809	165.37598	-551.62970	-33.61819	166.07150	-587.01849	211.14682	173.42090	-653.48651	289.98764	159.27574	-617.94861	296.05579	162.26697	-551.60620	248.92839	165.60564	-528.18341	304.11401	146.55998	-398.25052	127.70133	1437.42383	-510.94464	289.28638	1160.16565	-517.83521	-72.55187	143.02852	-787.69055	49.61096	178.42285	-788.30115	169.21545	189.51215	-690.63635	-13.34655	750.40381	-643.75171	-45.13209	463.13306	-745.51117	-10.32145	209.85155	-876.04803	-78.48602	141.09680				-540.90381	144.35094	547.71222	-672.07465	165.06432	152.41774	-797.66528	-82.93141	723.14539							-579.49390	-39.59099	525.93011	-708.55847	-72.44410	651.41852	-594.07300	-40.88946	563.96411	
